<svg width="400" height="300" viewBox="0 0 400 300" fill="none" xmlns="http://www.w3.org/2000/svg">
  <rect width="400" height="300" fill="#f3f4f6"/>
  <rect x="50" y="50" width="300" height="200" rx="8" fill="#06b6d4"/>
  <circle cx="150" cy="120" r="25" fill="#fbbf24"/>
  <path d="M180 140C180 130 185 120 195 120C205 120 210 130 210 140C210 150 205 160 195 160C185 160 180 150 180 140Z" fill="white"/>
  <path d="M220 145C220 135 225 125 235 125C245 125 250 135 250 145C250 155 245 165 235 165C225 165 220 155 220 145Z" fill="white"/>
  <rect x="100" y="180" width="80" height="6" rx="3" fill="white" opacity="0.7"/>
  <rect x="100" y="195" width="60" height="6" rx="3" fill="white" opacity="0.5"/>
  <text x="200" y="280" text-anchor="middle" fill="#6b7280" font-family="Arial, sans-serif" font-size="16">Weather App</text>
</svg>